<mxfile host="app.diagrams.net" agent="Mozilla/5.0 (Macintosh; Intel Mac OS X 10_15_7) AppleWebKit/537.36 (KHTML, like Gecko) Chrome/131.0.0.0 Safari/537.36" version="24.8.9">
  <diagram name="Página-1" id="BBM7HmE_G74GKGTS61Dw">
    <mxGraphModel dx="-1678" dy="760" grid="0" gridSize="10" guides="1" tooltips="1" connect="1" arrows="1" fold="1" page="0" pageScale="1" pageWidth="827" pageHeight="1169" math="0" shadow="0">
      <root>
        <mxCell id="0" />
        <mxCell id="1" parent="0" />
        <mxCell id="ofPMTWtSP_iq6lM-ZGT5-7" value="Conta AWS" style="points=[[0,0],[0.25,0],[0.5,0],[0.75,0],[1,0],[1,0.25],[1,0.5],[1,0.75],[1,1],[0.75,1],[0.5,1],[0.25,1],[0,1],[0,0.75],[0,0.5],[0,0.25]];outlineConnect=0;gradientColor=none;html=1;whiteSpace=wrap;fontSize=12;fontStyle=0;container=0;pointerEvents=0;collapsible=0;recursiveResize=0;shape=mxgraph.aws4.group;grIcon=mxgraph.aws4.group_account;strokeColor=#CD2264;fillColor=none;verticalAlign=top;align=left;spacingLeft=30;fontColor=#CD2264;dashed=0;" parent="1" vertex="1">
          <mxGeometry x="3108" y="118" width="916" height="392" as="geometry" />
        </mxCell>
        <mxCell id="ofPMTWtSP_iq6lM-ZGT5-13" value="Região São Paulo (sa-east-1)" style="points=[[0,0],[0.25,0],[0.5,0],[0.75,0],[1,0],[1,0.25],[1,0.5],[1,0.75],[1,1],[0.75,1],[0.5,1],[0.25,1],[0,1],[0,0.75],[0,0.5],[0,0.25]];outlineConnect=0;gradientColor=none;html=1;whiteSpace=wrap;fontSize=12;fontStyle=0;container=1;pointerEvents=0;collapsible=0;recursiveResize=0;shape=mxgraph.aws4.group;grIcon=mxgraph.aws4.group_region;strokeColor=#00A4A6;fillColor=default;verticalAlign=top;align=left;spacingLeft=30;fontColor=#147EBA;dashed=1;" parent="1" vertex="1">
          <mxGeometry x="3177" y="153.5" width="805" height="310.5" as="geometry" />
        </mxCell>
        <mxCell id="ofPMTWtSP_iq6lM-ZGT5-77" value="&amp;nbsp; AZ-A" style="sketch=0;outlineConnect=0;gradientColor=none;html=1;whiteSpace=wrap;fontSize=12;fontStyle=0;shape=mxgraph.aws4.group;grIcon=mxgraph.aws4.group_availability_zone;strokeColor=#545B64;fillColor=none;verticalAlign=top;align=left;spacingLeft=30;fontColor=#545B64;dashed=1;" parent="ofPMTWtSP_iq6lM-ZGT5-13" vertex="1">
          <mxGeometry x="160" y="72.5" width="603" height="180" as="geometry" />
        </mxCell>
        <mxCell id="ofPMTWtSP_iq6lM-ZGT5-60" value="&lt;font color=&quot;#6666ff&quot;&gt;VPC 10.0.0.0/16&lt;/font&gt;" style="points=[[0,0],[0.25,0],[0.5,0],[0.75,0],[1,0],[1,0.25],[1,0.5],[1,0.75],[1,1],[0.75,1],[0.5,1],[0.25,1],[0,1],[0,0.75],[0,0.5],[0,0.25]];outlineConnect=0;gradientColor=none;html=1;whiteSpace=wrap;fontSize=12;fontStyle=0;container=1;pointerEvents=0;collapsible=0;recursiveResize=0;shape=mxgraph.aws4.group;grIcon=mxgraph.aws4.group_vpc2;strokeColor=#8C4FFF;fillColor=none;verticalAlign=top;align=left;spacingLeft=30;fontColor=#AAB7B8;dashed=0;" parent="ofPMTWtSP_iq6lM-ZGT5-13" vertex="1">
          <mxGeometry x="190" y="26" width="531" height="257" as="geometry" />
        </mxCell>
        <mxCell id="ofPMTWtSP_iq6lM-ZGT5-66" value="Sub-rede pública" style="points=[[0,0],[0.25,0],[0.5,0],[0.75,0],[1,0],[1,0.25],[1,0.5],[1,0.75],[1,1],[0.75,1],[0.5,1],[0.25,1],[0,1],[0,0.75],[0,0.5],[0,0.25]];outlineConnect=0;gradientColor=none;html=1;whiteSpace=wrap;fontSize=12;fontStyle=0;container=1;pointerEvents=0;collapsible=0;recursiveResize=0;shape=mxgraph.aws4.group;grIcon=mxgraph.aws4.group_security_group;grStroke=0;strokeColor=#7AA116;fillColor=#F2F6E8;verticalAlign=top;align=left;spacingLeft=30;fontColor=#248814;dashed=0;" parent="ofPMTWtSP_iq6lM-ZGT5-60" vertex="1">
          <mxGeometry x="79" y="53" width="374" height="150" as="geometry" />
        </mxCell>
        <mxCell id="PWoz4rSzEnmUFNBiS0Xm-13" value="" style="ellipse;whiteSpace=wrap;html=1;aspect=fixed;fillColor=default;strokeColor=none;fillStyle=solid;" parent="ofPMTWtSP_iq6lM-ZGT5-60" vertex="1">
          <mxGeometry x="-15" y="110.5" width="28" height="28" as="geometry" />
        </mxCell>
        <mxCell id="QtH6YK_VenNmQe4hyox1-1" value="Internet Gateway" style="text;html=1;align=center;verticalAlign=middle;whiteSpace=wrap;rounded=0;fillColor=default;" parent="ofPMTWtSP_iq6lM-ZGT5-60" vertex="1">
          <mxGeometry x="-29" y="141.5" width="60" height="30" as="geometry" />
        </mxCell>
        <mxCell id="ofPMTWtSP_iq6lM-ZGT5-69" value="Servidor de web" style="sketch=0;points=[[0,0,0],[0.25,0,0],[0.5,0,0],[0.75,0,0],[1,0,0],[0,1,0],[0.25,1,0],[0.5,1,0],[0.75,1,0],[1,1,0],[0,0.25,0],[0,0.5,0],[0,0.75,0],[1,0.25,0],[1,0.5,0],[1,0.75,0]];outlineConnect=0;fontColor=#232F3E;fillColor=#ED7100;strokeColor=#ffffff;dashed=0;verticalLabelPosition=bottom;verticalAlign=top;align=center;html=1;fontSize=12;fontStyle=0;aspect=fixed;shape=mxgraph.aws4.resourceIcon;resIcon=mxgraph.aws4.ec2;" parent="ofPMTWtSP_iq6lM-ZGT5-13" vertex="1">
          <mxGeometry x="305" y="121.5" width="60" height="60" as="geometry" />
        </mxCell>
        <mxCell id="PWoz4rSzEnmUFNBiS0Xm-7" value="Servidor de aplicativo" style="sketch=0;points=[[0,0,0],[0.25,0,0],[0.5,0,0],[0.75,0,0],[1,0,0],[0,1,0],[0.25,1,0],[0.5,1,0],[0.75,1,0],[1,1,0],[0,0.25,0],[0,0.5,0],[0,0.75,0],[1,0.25,0],[1,0.5,0],[1,0.75,0]];outlineConnect=0;fontColor=#232F3E;fillColor=#ED7100;strokeColor=#ffffff;dashed=0;verticalLabelPosition=bottom;verticalAlign=top;align=center;html=1;fontSize=12;fontStyle=0;aspect=fixed;shape=mxgraph.aws4.resourceIcon;resIcon=mxgraph.aws4.ec2;" parent="ofPMTWtSP_iq6lM-ZGT5-13" vertex="1">
          <mxGeometry x="428" y="121.5" width="60" height="60" as="geometry" />
        </mxCell>
        <mxCell id="iLQ6FceGbxfSR6hpmCKE-1" value="Servidor de &lt;br&gt;banco de dados" style="sketch=0;points=[[0,0,0],[0.25,0,0],[0.5,0,0],[0.75,0,0],[1,0,0],[0,1,0],[0.25,1,0],[0.5,1,0],[0.75,1,0],[1,1,0],[0,0.25,0],[0,0.5,0],[0,0.75,0],[1,0.25,0],[1,0.5,0],[1,0.75,0]];outlineConnect=0;fontColor=#232F3E;fillColor=#ED7100;strokeColor=#ffffff;dashed=0;verticalLabelPosition=bottom;verticalAlign=top;align=center;html=1;fontSize=12;fontStyle=0;aspect=fixed;shape=mxgraph.aws4.resourceIcon;resIcon=mxgraph.aws4.ec2;" vertex="1" parent="ofPMTWtSP_iq6lM-ZGT5-13">
          <mxGeometry x="551" y="120.5" width="60" height="60" as="geometry" />
        </mxCell>
        <mxCell id="PWoz4rSzEnmUFNBiS0Xm-21" value="&lt;meta charset=&quot;utf-8&quot;&gt;&lt;span style=&quot;color: rgb(0, 0, 0); font-family: Helvetica; font-size: 11px; font-style: normal; font-variant-ligatures: normal; font-variant-caps: normal; font-weight: 400; letter-spacing: normal; orphans: 2; text-align: center; text-indent: 0px; text-transform: none; widows: 2; word-spacing: 0px; -webkit-text-stroke-width: 0px; white-space: nowrap; background-color: rgb(255, 255, 255); text-decoration-thickness: initial; text-decoration-style: initial; text-decoration-color: initial; display: inline !important; float: none;&quot;&gt;54.128.34.12&lt;/span&gt;" style="edgeStyle=orthogonalEdgeStyle;rounded=0;orthogonalLoop=1;jettySize=auto;html=1;flowAnimation=1;" parent="1" source="PWoz4rSzEnmUFNBiS0Xm-3" target="PWoz4rSzEnmUFNBiS0Xm-11" edge="1">
          <mxGeometry x="0.23" relative="1" as="geometry">
            <mxPoint as="offset" />
          </mxGeometry>
        </mxCell>
        <mxCell id="PWoz4rSzEnmUFNBiS0Xm-3" value="&lt;b&gt;Usuários&lt;/b&gt;" style="sketch=0;pointerEvents=1;shadow=0;dashed=0;html=1;strokeColor=none;labelPosition=center;verticalLabelPosition=bottom;verticalAlign=top;outlineConnect=0;align=center;shape=mxgraph.office.users.users;fillColor=#A680B8;" parent="1" vertex="1">
          <mxGeometry x="3005" y="270" width="70" height="70" as="geometry" />
        </mxCell>
        <mxCell id="PWoz4rSzEnmUFNBiS0Xm-11" value="" style="sketch=0;outlineConnect=0;fontColor=#232F3E;gradientColor=none;fillColor=#8C4FFF;strokeColor=none;dashed=0;verticalLabelPosition=bottom;verticalAlign=top;align=center;html=1;fontSize=12;fontStyle=0;aspect=fixed;pointerEvents=1;shape=mxgraph.aws4.internet_gateway;fillStyle=solid;" parent="1" vertex="1">
          <mxGeometry x="3352" y="288.75" width="30.5" height="30.5" as="geometry" />
        </mxCell>
        <mxCell id="PWoz4rSzEnmUFNBiS0Xm-22" style="edgeStyle=orthogonalEdgeStyle;rounded=0;orthogonalLoop=1;jettySize=auto;html=1;entryX=0;entryY=0.5;entryDx=0;entryDy=0;entryPerimeter=0;flowAnimation=1;" parent="1" source="PWoz4rSzEnmUFNBiS0Xm-11" target="ofPMTWtSP_iq6lM-ZGT5-69" edge="1">
          <mxGeometry relative="1" as="geometry" />
        </mxCell>
      </root>
    </mxGraphModel>
  </diagram>
</mxfile>
